<svg width="275" height="92" viewBox="0 0 275 92" fill="none" xmlns="http://www.w3.org/2000/svg">
<path d="M25.648 53.4644C25.0073 53.5581 24.6532 53.3914 24.5855 52.9435C24.5438 52.6102 24.7313 52.4123 25.148 52.3394L26.023 52.2977C26.7001 52.2039 27.1115 51.7456 27.2521 50.9227C27.3615 50.2456 27.2938 49.0425 27.0438 47.3185L25.2521 34.9852C25.0021 33.2769 24.7521 32.1727 24.5021 31.6727C24.2626 31.1727 24.0126 30.8498 23.7521 30.6935C23.5021 30.5269 23.2053 30.4748 22.8563 30.5269L21.9813 30.6935C21.5646 30.7664 21.3355 30.6414 21.2938 30.3185C21.2261 29.8758 21.5126 29.605 22.148 29.506C22.7886 29.4123 23.4084 29.3706 24.0021 29.381C24.5959 29.3967 25.2001 29.3602 25.8146 29.2769C26.4396 29.1831 27.023 29.0425 27.5646 28.8602C28.1167 28.6831 28.7157 28.5477 29.3563 28.4644C29.9917 28.3706 30.3459 28.5425 30.4188 28.9852C30.4605 29.3081 30.2626 29.4956 29.8355 29.5477L29.0021 29.631C28.2938 29.7456 27.8667 30.2039 27.7313 31.006C27.6323 31.631 27.7157 32.8289 27.9813 34.5894L29.4188 44.4644C29.7938 47.0217 30.1532 49.131 30.5021 50.7977C31.4032 50.8967 32.3667 50.8706 33.398 50.7144C34.424 50.5633 35.3042 50.3758 36.0438 50.1519C36.7938 49.9331 37.4292 49.6623 37.9605 49.3394C38.9448 48.7456 39.6532 47.8967 40.0855 46.7977C40.2521 46.3394 40.4501 46.0998 40.6896 46.0685C40.924 46.0269 41.0698 46.1831 41.1271 46.5269C41.1376 46.6675 41.1271 46.855 41.0855 47.0894C41.0282 47.4123 40.9501 47.881 40.8563 48.506C40.773 49.1206 40.6948 49.5998 40.6271 49.9435C40.5698 50.2769 40.4865 50.5581 40.3771 50.7769C40.1532 51.2248 39.7938 51.4852 39.2938 51.5685C38.7938 51.6414 38.3198 51.7039 37.8771 51.756C37.4448 51.8133 36.9865 51.8706 36.5021 51.9227C36.0282 51.98 35.5073 52.0373 34.9396 52.0894C34.3667 52.131 33.7313 52.1883 33.023 52.256C32.3146 52.3289 31.6896 52.3914 31.148 52.4435C30.6167 52.4852 30.0907 52.5477 29.5646 52.631C29.049 52.7039 28.6271 52.7769 28.2938 52.8602C27.9605 52.9331 27.6532 53.0008 27.3771 53.0685C27.0959 53.1414 26.8251 53.2092 26.5646 53.2769C26.3146 53.3498 26.0073 53.4123 25.648 53.4644Z" fill="#171E40"/>
<path d="M54.299 49.7863C53.6844 49.854 53.1792 49.7186 52.7782 49.3696C52.3875 49.0259 52.1636 48.6353 52.1115 48.203C52.0698 47.7759 52.0907 47.4321 52.174 47.1821C52.2573 46.9321 52.3875 46.703 52.5698 46.4946C52.9136 46.0936 53.3719 45.8592 53.9448 45.7863C54.5282 45.7186 55.0178 45.8488 55.424 46.1821C55.8407 46.5155 56.0698 46.8905 56.1115 47.3071C56.1636 47.7238 56.1584 48.0675 56.0907 48.328C56.0178 48.578 55.9032 48.8019 55.7365 48.9946C55.4032 49.4425 54.924 49.703 54.299 49.7863Z" fill="#171E40"/>
<path d="M69.8777 47.6673C69.2944 47.7089 68.7371 47.8027 68.211 47.9381C67.6954 48.0631 67.1329 48.1464 66.5235 48.1881C65.9298 48.2402 65.6173 48.0735 65.586 47.6881C65.5444 47.2871 65.8048 47.0631 66.3569 47.0214C66.9246 46.9798 67.3256 46.8444 67.5652 46.6048C67.9402 46.2037 68.284 45.5839 68.6069 44.7506C68.9246 43.9069 69.2162 43.1048 69.4819 42.3548C69.7579 41.6048 70.0756 40.7402 70.4402 39.7506C70.7996 38.7506 71.1954 37.6464 71.6277 36.4381C72.0548 35.2194 72.5079 33.9121 72.9819 32.5214C74.1902 28.9381 74.9871 26.5319 75.3777 25.2923C75.7631 24.0423 75.9715 23.3548 76.0027 23.2298C76.0444 23.0944 76.0965 22.9694 76.1694 22.8548C76.2944 22.5944 76.4037 22.4589 76.5027 22.4589C76.6121 22.4485 76.7006 22.4537 76.7735 22.4798C76.8569 22.4954 76.9402 22.5423 77.0235 22.6256C77.2162 22.8339 77.4194 23.1569 77.6277 23.5839C77.8465 24.0162 78.1329 24.5944 78.4819 25.3131C78.8412 26.0214 79.2527 26.8444 79.711 27.7714C80.1798 28.7037 80.6746 29.6985 81.1902 30.7506C81.7162 31.7923 82.2371 32.8444 82.7527 33.8964C83.2787 34.9537 83.7944 35.9746 84.2944 36.9589C84.8048 37.9329 85.2579 38.8235 85.6485 39.6256C86.8569 41.9902 87.6173 43.3964 87.9402 43.8548C88.2579 44.3131 88.5131 44.636 88.711 44.8131C89.0131 45.0631 89.461 45.1673 90.0444 45.1256C90.6277 45.0735 90.9298 45.2454 90.961 45.6464C91.0027 46.0371 90.6485 46.2662 89.8985 46.3339C89.5756 46.3496 89.2996 46.3496 89.0652 46.3339C88.8412 46.3235 88.6173 46.3131 88.3985 46.3131C87.7006 46.2714 87.0912 46.2714 86.5652 46.3131L83.1902 46.8756C82.4246 46.9329 82.0235 46.7402 81.9819 46.2923C81.9506 45.9485 82.1485 45.761 82.5652 45.7298L83.6485 45.7506C84.0912 45.7246 84.3777 45.6048 84.5027 45.3964C84.6277 45.1881 84.6746 44.9381 84.6485 44.6464C84.6069 44.0944 84.2996 43.261 83.7319 42.1464L81.9819 38.6048L72.2319 39.3756C72.0079 40.1152 71.7996 40.7871 71.6069 41.3964C71.409 41.9954 71.2319 42.5787 71.0652 43.1464C70.8256 44.0631 70.7319 44.7819 70.7735 45.2923C70.8152 45.7923 70.9298 46.1621 71.1277 46.3964C71.336 46.6204 71.6902 46.7089 72.1902 46.6673L73.2527 46.5006C73.6798 46.4589 73.9037 46.6048 73.9194 46.9381C73.961 47.386 73.5965 47.6412 72.836 47.7089L69.8777 47.6673ZM81.2735 37.1464L76.2527 27.0006C75.5965 29.1256 74.4246 32.7402 72.7319 37.8339L81.2735 37.1464Z" fill="#171E40"/>
<path d="M120.73 20.8322C121.464 20.8061 121.839 20.9988 121.855 21.4155C121.865 21.8322 121.631 22.0509 121.147 22.0613C120.522 22.0926 120.084 22.2436 119.834 22.5197C119.376 22.978 118.964 23.7436 118.605 24.8113L111.709 44.9155C111.444 45.6655 111.194 46.0457 110.959 46.0613C110.652 46.0613 110.313 45.6499 109.938 44.8322L101.105 25.4155C100.589 24.3634 100.199 23.702 99.9383 23.4363C99.5061 23.0353 99.0217 22.8426 98.48 22.853C97.9383 22.8686 97.6623 22.6655 97.6467 22.2488C97.6467 22.0822 97.7404 21.9363 97.9175 21.8113C98.0998 21.6759 98.3446 21.603 98.6675 21.603C99.0008 21.5926 99.2717 21.5978 99.48 21.6238C99.6988 21.6395 99.9175 21.6603 100.126 21.6863C100.735 21.7697 101.313 21.8061 101.855 21.7905C102.397 21.7645 102.959 21.6967 103.543 21.5822C104.136 21.4572 104.772 21.3894 105.438 21.3738C106.115 21.3478 106.464 21.5301 106.48 21.9155C106.49 22.3061 106.24 22.5092 105.73 22.5197C104.423 22.5613 103.782 22.9467 103.813 23.6655C103.824 24.1551 104.089 24.952 104.605 26.0613L111.522 41.1238L116.501 25.6863C116.803 24.728 116.949 24.0301 116.938 23.5822C116.897 22.6134 116.147 22.1551 114.688 22.2072C114.199 22.2228 113.949 22.0353 113.938 21.6447C113.923 21.2592 114.293 21.0509 115.043 21.0197C115.418 21.0197 115.845 21.0613 116.334 21.1447C116.819 21.2176 117.407 21.2384 118.105 21.2072L120.73 20.8322Z" fill="#171E40"/>
<path d="M132.48 44.9411C131.824 44.9255 131.501 44.6963 131.501 44.2536C131.501 43.9203 131.715 43.764 132.147 43.7745L133.001 43.8578C133.668 43.8578 134.116 43.5817 134.355 43.0245C134.616 42.389 134.757 41.0974 134.772 39.1495L134.876 26.6286C134.887 24.7015 134.803 23.4828 134.626 22.9828C134.444 22.4724 134.241 22.1495 134.022 22.0245C133.814 21.8995 133.533 21.837 133.189 21.837L132.335 21.8995C131.902 21.889 131.689 21.712 131.689 21.3786C131.689 20.9359 132.001 20.7224 132.626 20.7328C133.262 20.7328 133.783 20.7536 134.189 20.7953C134.59 20.8265 135.001 20.8578 135.418 20.8995C136.512 20.9984 137.376 21.0557 138.001 21.0661C138.626 21.0661 139.293 21.0609 140.001 21.0453C140.71 21.0192 141.501 20.9828 142.376 20.9411C144.668 20.8734 146.257 20.8474 147.147 20.8578C148.033 20.8578 148.527 20.9151 148.626 21.0245C148.72 21.1234 148.772 21.2692 148.772 21.462C148.772 21.6442 148.762 21.8161 148.751 21.9828C148.751 22.139 148.736 22.3161 148.71 22.5245C148.71 22.7901 148.673 23.1911 148.605 23.7328C148.548 24.264 148.47 24.6234 148.376 24.8161C148.293 24.9984 148.173 25.087 148.022 25.087C147.866 25.087 147.762 25.0453 147.71 24.962C147.668 24.8786 147.59 24.7015 147.48 24.4203C147.382 24.1442 147.21 23.8786 146.96 23.6286C146.71 23.3682 146.314 23.1599 145.772 23.0036C144.715 22.6703 142.757 22.4984 139.897 22.4828L138.314 22.462C138.033 22.462 137.855 22.5036 137.772 22.587C137.699 22.6703 137.668 22.8578 137.668 23.1495L137.605 30.5661C139.007 30.7328 140.168 30.8265 141.085 30.837C142.012 30.8526 142.673 30.8578 143.064 30.8578C143.465 30.8474 143.793 30.8057 144.043 30.7328C144.501 30.6495 144.84 30.4567 145.064 30.1495C145.465 29.5245 145.783 29.212 146.022 29.212C146.34 29.212 146.501 29.3786 146.501 29.712L145.876 32.212L145.918 33.5453C145.918 34.3942 145.715 34.8161 145.314 34.8161C144.98 34.8057 144.814 34.5765 144.814 34.1286C144.814 33.6703 144.783 33.3317 144.73 33.1078C144.689 32.889 144.543 32.7067 144.293 32.5661C143.918 32.389 143.001 32.2901 141.543 32.2745C140.085 32.264 138.772 32.3161 137.605 32.4411L137.564 36.6286C137.548 39.2276 137.595 41.3734 137.71 43.0661C138.652 43.2745 139.678 43.389 140.793 43.3995C141.918 43.4151 142.876 43.3942 143.668 43.337C144.47 43.2849 145.158 43.1703 145.73 43.0036C146.866 42.6703 147.71 42.0245 148.251 41.0661C148.501 40.6495 148.741 40.4411 148.98 40.4411C149.215 40.4411 149.324 40.6078 149.314 40.9411C149.314 41.0817 149.272 41.2692 149.189 41.5036C149.09 41.8109 148.949 42.2692 148.772 42.8786C148.59 43.4776 148.449 43.9151 148.355 44.1911C148.257 44.4567 148.152 44.6547 148.043 44.7953C147.861 45.0297 147.512 45.139 147.001 45.1286C146.486 45.1286 145.986 45.1182 145.501 45.1078C145.012 45.0922 144.507 45.0765 143.98 45.0661C143.366 45.0505 142.423 44.9932 141.147 44.8995C137.939 44.7172 136.053 44.6495 135.501 44.6911C134.96 44.7432 134.543 44.7797 134.251 44.7953C133.97 44.8213 133.694 44.8474 133.418 44.8786C133.152 44.9203 132.84 44.9411 132.48 44.9411Z" fill="#171E40"/>
<path d="M160.392 45.3461C159.627 45.3044 159.257 45.0597 159.288 44.6169C159.298 44.2836 159.522 44.1326 159.955 44.1586L160.809 44.2836C161.517 44.3253 162.007 43.9503 162.288 43.1586C162.522 42.5076 162.689 41.3149 162.788 39.5753L163.434 27.1794C163.528 25.4451 163.502 24.3149 163.351 23.7836C163.21 23.2419 163.028 22.8669 162.809 22.6586C162.601 22.4503 162.314 22.3409 161.955 22.3253L161.101 22.3878C160.668 22.3617 160.46 22.1742 160.476 21.8253C160.502 21.3669 160.897 21.1586 161.663 21.2003L163.955 21.5961C164.455 21.6274 164.897 21.6117 165.288 21.5544L180.538 41.2628L181.226 28.0753C181.319 26.3669 181.293 25.2367 181.142 24.6794C180.986 24.1274 180.793 23.7524 180.559 23.5544C180.335 23.3461 180.038 23.2315 179.663 23.2003L178.788 23.2211C178.371 23.1951 178.168 23.0232 178.184 22.7003C178.21 22.2576 178.606 22.0544 179.371 22.0961C179.663 22.1117 180.048 22.1742 180.538 22.2836C181.147 22.4399 181.705 22.5284 182.205 22.5544C182.705 22.5701 183.194 22.544 183.684 22.4711C184.184 22.4034 184.752 22.3878 185.392 22.4294C186.043 22.4607 186.356 22.6951 186.33 23.1378C186.314 23.4607 186.09 23.6065 185.663 23.5753L184.809 23.4711C184.085 23.4294 183.585 23.7992 183.309 24.5753C183.085 25.1899 182.923 26.3826 182.83 28.1586L181.913 45.9711C181.882 46.3722 181.83 46.6274 181.746 46.7419C181.673 46.8669 181.564 46.9294 181.413 46.9294C181.189 46.9138 180.871 46.6482 180.455 46.1378L165.184 26.4503L164.496 39.6586C164.397 41.4399 164.413 42.5909 164.538 43.1169C164.673 43.6482 164.856 44.0128 165.08 44.2211C165.298 44.419 165.59 44.5284 165.955 44.5544L166.809 44.5128C167.236 44.544 167.444 44.7211 167.434 45.0544C167.403 45.4972 167.048 45.7003 166.371 45.6586C165.705 45.6169 165.111 45.5388 164.601 45.4294C164.085 45.3149 163.58 45.2472 163.08 45.2211C162.59 45.1899 162.106 45.2055 161.621 45.2628C161.132 45.3305 160.726 45.3565 160.392 45.3461Z" fill="#171E40"/>
<path d="M204.444 25.2562L203.611 25.1104C202.887 25.0427 202.35 25.3813 202.006 26.1313C201.715 26.7979 201.486 27.975 201.319 29.6521L200.444 38.3396C200.277 39.9802 200.277 41.1677 200.444 41.9021C200.611 42.626 200.871 43.3083 201.236 43.9438C201.611 44.5688 202.069 45.1104 202.611 45.5688C203.678 46.501 204.933 47.0375 206.381 47.1938C207.84 47.3448 209.058 47.2979 210.048 47.0479C211.032 46.7979 211.84 46.3552 212.465 45.7146C213.657 44.5479 214.392 42.5427 214.673 39.6938L215.506 31.0896C215.683 29.3812 215.715 28.251 215.59 27.6938C215.475 27.1417 215.319 26.7563 215.111 26.5479C214.902 26.3396 214.616 26.225 214.256 26.1938L213.402 26.1521C212.986 26.1104 212.788 25.9229 212.819 25.5896C212.861 25.1469 213.199 24.9594 213.84 25.0271C214.475 25.1 215.032 25.2094 215.506 25.3604C215.991 25.501 216.496 25.5896 217.027 25.6312L219.944 25.6521C220.694 25.725 221.048 25.9802 221.006 26.4229C220.975 26.7563 220.746 26.9021 220.319 26.8604L219.486 26.7146C218.762 26.6469 218.241 26.9854 217.923 27.7354C217.657 28.4021 217.444 29.5844 217.277 31.2771L216.277 40.7563C216.012 43.3708 214.97 45.4229 213.152 46.9229C211.303 48.4229 208.991 49.0323 206.215 48.7563C203.173 48.449 200.85 47.3708 199.256 45.5271C197.657 43.6104 197.012 41.1104 197.319 38.0271L198.194 29.3396C198.361 27.6625 198.381 26.5375 198.256 25.9646C198.131 25.3969 197.954 25.0062 197.736 24.7979C197.527 24.5896 197.241 24.4646 196.881 24.4229L196.027 24.4021C195.595 24.3604 195.392 24.1729 195.423 23.8396C195.465 23.3969 195.803 23.2094 196.444 23.2771C197.095 23.3344 197.725 23.4437 198.34 23.6104C198.965 23.7667 199.616 23.876 200.298 23.9438C200.975 24.0167 201.642 24.0375 202.298 24.0063C202.949 23.9802 203.595 24.001 204.236 24.0688C204.871 24.126 205.173 24.376 205.131 24.8187C205.1 25.1521 204.871 25.2979 204.444 25.2562Z" fill="#171E40"/>
<path d="M228.433 51.159C227.777 51.06 227.485 50.7892 227.558 50.3465C227.6 50.0131 227.834 49.8777 228.267 49.9298L229.121 50.1381C229.772 50.2371 230.246 50.0235 230.537 49.4923C230.897 48.8985 231.215 47.6381 231.496 45.7215L233.308 33.3256C233.584 31.409 233.668 30.1954 233.558 29.6798C233.444 29.1538 233.287 28.8152 233.079 28.659C232.881 28.5079 232.621 28.4038 232.287 28.3465L231.412 28.284C230.98 28.2319 230.793 28.0444 230.85 27.7215C230.902 27.2788 231.246 27.1069 231.871 27.2006C232.496 27.284 233.006 27.3673 233.412 27.4506C233.814 27.534 234.215 27.6329 234.621 27.7423C235.689 27.9923 236.527 28.1694 237.142 28.2631C237.767 28.3465 238.433 28.4298 239.142 28.5131C239.85 28.586 240.631 28.659 241.496 28.7423C243.772 28.9663 245.35 29.1485 246.225 29.284C247.11 29.409 247.6 29.534 247.683 29.659C247.767 29.7735 247.793 29.9246 247.767 30.1173C247.735 30.2996 247.709 30.4663 247.683 30.6173C247.652 30.7735 247.621 30.9454 247.579 31.1381C247.537 31.4038 247.444 31.7996 247.308 32.3256C247.168 32.8413 247.043 33.1902 246.933 33.3673C246.819 33.534 246.689 33.6121 246.537 33.5965C246.381 33.5704 246.287 33.5131 246.246 33.4298C246.204 33.3465 246.147 33.159 246.079 32.8673C246.022 32.5756 245.892 32.2944 245.683 32.0131C245.475 31.7215 245.105 31.461 244.579 31.2215C243.59 30.7527 241.683 30.3152 238.85 29.909L237.287 29.6798C237.006 29.6381 236.819 29.6538 236.725 29.7215C236.642 29.7944 236.579 29.9715 236.537 30.2631L235.475 37.5965C236.834 37.9715 237.975 38.2319 238.892 38.3673C239.808 38.4923 240.459 38.586 240.85 38.6381C241.235 38.6798 241.564 38.6902 241.829 38.659C242.298 38.6329 242.662 38.4819 242.912 38.2006C243.381 37.6485 243.735 37.3829 243.975 37.409C244.293 37.4663 244.433 37.659 244.392 37.9923L243.433 40.3465L243.287 41.7006C243.173 42.534 242.923 42.9246 242.537 42.8673C242.204 42.8152 242.064 42.5652 242.121 42.1173C242.189 41.6746 242.209 41.3413 242.183 41.1173C242.168 40.8829 242.043 40.6746 241.808 40.4923C241.459 40.2735 240.564 40.0548 239.121 39.8465C237.689 39.6277 236.381 39.4923 235.204 39.4506L234.6 43.5965C234.225 46.1694 233.975 48.3048 233.85 50.0131C234.767 50.3465 235.772 50.5965 236.871 50.7631C237.98 50.9298 238.933 51.0392 239.725 51.0965C240.527 51.1485 241.225 51.1277 241.808 51.034C242.985 50.8673 243.918 50.3413 244.6 49.4506C244.892 49.0756 245.152 48.909 245.392 48.9506C245.626 48.9819 245.725 49.159 245.683 49.4923C245.652 49.6329 245.584 49.8152 245.475 50.034C245.334 50.3152 245.131 50.7319 244.871 51.3048C244.605 51.8881 244.402 52.3048 244.267 52.5548C244.126 52.8048 243.996 52.9923 243.871 53.1173C243.662 53.3256 243.298 53.3933 242.787 53.3256C242.287 53.2527 241.793 53.1798 241.308 53.0965C240.834 53.0131 240.334 52.9298 239.808 52.8465C239.209 52.7475 238.287 52.56 237.037 52.284C233.871 51.6694 232.006 51.3517 231.454 51.3256C230.912 51.2944 230.496 51.2735 230.204 51.2631C229.923 51.2475 229.647 51.2319 229.371 51.2215C229.105 51.2215 228.793 51.2006 228.433 51.159Z" fill="#171E40"/>
<path d="M104.344 78.6272C104.344 79.7262 103.933 80.5647 103.115 81.1481C102.308 81.7314 101.12 82.0231 99.5525 82.0231C98.1202 82.0231 96.9952 81.7679 96.1775 81.2522C95.3545 80.7418 94.8285 79.971 94.5941 78.9397L96.865 78.5647C97.016 79.1637 97.3129 79.596 97.7608 79.8564C98.2035 80.122 98.8233 80.2522 99.615 80.2522C101.24 80.2522 102.052 79.7626 102.052 78.7731C102.052 78.4554 101.954 78.1897 101.761 77.9814C101.579 77.7731 101.313 77.6012 100.969 77.4606C100.636 77.3251 99.99 77.1585 99.0316 76.9606C98.1827 76.7679 97.5941 76.6168 97.2608 76.5022C96.9379 76.3772 96.6462 76.2418 96.3858 76.0856C96.1202 75.9189 95.891 75.7262 95.6983 75.5022C95.516 75.2679 95.3754 74.997 95.2816 74.6897C95.1827 74.3876 95.1358 74.0335 95.1358 73.6272C95.1358 72.6272 95.5108 71.8564 96.2608 71.3147C97.0212 70.7731 98.1254 70.5022 99.5733 70.5022C100.959 70.5022 102 70.7262 102.698 71.1689C103.391 71.6012 103.844 72.3147 104.052 73.3147L101.782 73.6272C101.657 73.1429 101.412 72.7835 101.052 72.5439C100.704 72.2939 100.198 72.1689 99.5316 72.1689C98.115 72.1689 97.4066 72.6168 97.4066 73.5022C97.4066 73.7939 97.4795 74.0387 97.6358 74.2314C97.7868 74.4137 98.0108 74.5647 98.3025 74.6897C98.5941 74.8147 99.1879 74.9762 100.094 75.1689C101.177 75.4085 101.948 75.622 102.407 75.8147C102.865 75.997 103.224 76.221 103.49 76.4814C103.766 76.7314 103.974 77.0387 104.115 77.3981C104.266 77.7626 104.344 78.1689 104.344 78.6272Z" fill="#171E40"/>
<path d="M115.163 72.4814V81.8564H112.829V72.4814H109.225V70.6689H118.788V72.4814H115.163Z" fill="#171E40"/>
<path d="M128.756 82.0231C127.225 82.0231 126.053 81.6481 125.235 80.8981C124.412 80.1376 124.006 79.0595 124.006 77.6689V70.6689H126.34V77.4814C126.34 78.372 126.548 79.0439 126.965 79.5022C127.392 79.9606 128.011 80.1897 128.819 80.1897C129.662 80.1897 130.308 79.9553 130.756 79.4814C131.199 78.997 131.423 78.3043 131.423 77.3981V70.6689H133.777V77.5439C133.777 78.9606 133.34 80.0647 132.465 80.8564C131.59 81.6376 130.35 82.0231 128.756 82.0231Z" fill="#171E40"/>
<path d="M149.888 76.1897C149.888 77.346 149.659 78.3512 149.201 79.2106C148.742 80.0595 148.096 80.7106 147.263 81.1689C146.44 81.6272 145.497 81.8564 144.43 81.8564H139.909V70.6689H143.951C145.836 70.6689 147.294 71.1481 148.326 72.1064C149.367 73.0543 149.888 74.4137 149.888 76.1897ZM147.513 76.1897C147.513 74.9814 147.201 74.0647 146.576 73.4397C145.961 72.8043 145.076 72.4814 143.909 72.4814H142.263V80.0439H144.242C145.242 80.0439 146.034 79.7001 146.617 79.0022C147.211 78.3095 147.513 77.372 147.513 76.1897Z" fill="#171E40"/>
<path d="M155.707 81.8564V70.6689H158.062V81.8564H155.707Z" fill="#171E40"/>
<path d="M175.16 76.2106C175.16 77.3772 174.931 78.4085 174.473 79.2939C174.015 80.1689 173.353 80.846 172.494 81.3147C171.629 81.7887 170.629 82.0231 169.494 82.0231C167.744 82.0231 166.369 81.5126 165.369 80.4814C164.369 79.4397 163.869 78.0179 163.869 76.2106C163.869 74.4189 164.358 73.0231 165.348 72.0231C166.348 71.0126 167.733 70.5022 169.515 70.5022C171.275 70.5022 172.66 71.0179 173.66 72.0439C174.66 73.0595 175.16 74.4501 175.16 76.2106ZM172.765 76.2106C172.765 75.0022 172.478 74.0595 171.91 73.3772C171.337 72.7001 170.541 72.3564 169.515 72.3564C168.457 72.3564 167.645 72.7001 167.077 73.3772C166.504 74.0595 166.223 75.0022 166.223 76.2106C166.223 77.4501 166.515 78.4189 167.098 79.1272C167.681 79.8251 168.478 80.1689 169.494 80.1689C170.535 80.1689 171.337 79.8304 171.91 79.1481C172.478 78.4554 172.765 77.4762 172.765 76.2106Z" fill="#171E40"/>
</svg>
